<?xml version="1.0" standalone="yes"?><svg xmlns="http://www.w3.org/2000/svg" viewBox="0 0 30 30" style="zoom: 1;"><path fill="black" d="M8.32,19.16 l-5.54,5.54 H2 V28 h3.31 v-0.79 l5.54,-5.54 H8.32 V19.16  z M25.200001,2 L10.29,17.18 L8.5,15.4 l-0.94,0.94 l1.87,1.87 v2.36 h2.36 l1.87,1.87 l0.94,-0.94 l-1.78,-1.78 L28,4.8 V2 H25.200001  z M21.68,19.16 v2.52 h-2.52 l5.54,5.54 V28 H28 v-3.31 h-0.78 L21.68,19.16  z M14.6,11.98 L4.8,2 H2 v2.8 l9.98,9.8 L14.6,11.98  z M20.57,18.209999 l1.87,-1.87 L21.5,15.4 l-1.78,1.78 l-1.67,-1.71 l-2.56,2.56 l1.7,1.67 L15.4,21.5 l0.94,0.94 l1.87,-1.87 h2.36 V18.209999  z "></path></svg>